<svg version="1.0" xmlns="http://www.w3.org/2000/svg"
 width="201.000000pt" height="326.000000pt" viewBox="0 0 201.000000 326.000000"
 preserveAspectRatio="xMidYMid meet">

<g transform="translate(0.000000,326.000000) scale(0.100000,-0.100000)"
fill="#000000" stroke="none">
<path d="M290 3248 c-30 -11 -42 -45 -50 -139 -4 -55 -13 -97 -24 -113 -15
-23 -23 -26 -80 -26 -84 0 -110 -20 -126 -95 -10 -49 -7 -159 6 -222 l4 -23
984 0 983 0 7 46 c17 129 -2 252 -44 274 -9 5 -48 12 -86 16 -38 4 -72 12 -76
18 -4 6 -8 36 -8 66 0 75 -17 171 -32 186 -10 10 -169 14 -726 16 -392 2 -722
0 -732 -4z"/>
<path d="M174 2463 c8 -69 136 -1829 136 -1861 0 -18 6 -22 30 -22 17 0 33 -6
35 -12 2 -7 13 -94 25 -192 11 -99 22 -181 24 -183 7 -8 101 45 161 90 203
152 345 484 345 805 l0 71 -62 3 -63 3 -16 48 -16 48 -52 -47 c-28 -26 -59
-60 -67 -75 -8 -16 -19 -29 -24 -29 -14 0 -32 108 -25 153 11 67 50 143 98
189 41 41 44 47 50 113 10 108 43 220 92 320 43 86 136 215 155 215 23 0 117
-124 162 -215 50 -99 88 -249 88 -343 0 -41 5 -49 51 -93 59 -58 89 -119 96
-200 6 -57 -11 -149 -27 -149 -4 0 -13 13 -20 30 -15 36 -109 126 -120 114 -4
-5 -13 -26 -20 -46 l-12 -38 -64 0 -64 0 0 -45 c0 -82 21 -236 45 -330 61
-243 197 -443 372 -548 32 -19 68 -38 80 -41 26 -8 24 -14 48 194 23 194 22
190 55 190 35 0 32 -18 60 370 11 157 40 564 65 904 25 340 45 630 45 642 l0
24 -836 0 -836 0 6 -57z"/>
</g>
</svg>
